<svg xmlns="http://www.w3.org/2000/svg" viewBox="0 0 64 64">
  <rect width="64" height="64" rx="13" fill="#7b1c1c"/>
  <g fill="white">
    <path d="M21 37 C19 30 20 23 25 19 C29 15 35 15 39 18 C44 22 45 29 43 35 C41 41 36 46 30 46 C24 46 22 43 21 37Z"/>
    <path d="M31 19 C30 13 28 10 31 8 C34 6 36 9 34 19" fill="none" stroke="white" stroke-width="2.5" stroke-linecap="round"/>
    <circle cx="31" cy="8" r="2.5"/>
    <circle cx="27" cy="32" r="1.8" fill="#7b1c1c"/>
    <circle cx="33" cy="38" r="1.5" fill="#7b1c1c"/>
    <circle cx="36" cy="28" r="1.2" fill="#7b1c1c"/>
  </g>
</svg>
